:SAMPLES-PER-SECOND 30
:FULLY-SPECIFIED
:DEGREES
319
root  28.6515 28.4849 39.2166 -155.527 8.5335 167.666
RightUpLeg  -54.2055 -4.84212 -25.049
RightLeg  68.6875 -0.0227185 -0.203459
RightFoot  -24.2418 0.242054 1.50463
RightToes  -48.0123 -0.28544 -0.355768
Spine  19.6559 3.52036 5.27996
Spine1  33.2028 11.2586 2.83681
HEad  0.139896 -12.0389 -1.61721
LeftShoulder1  0 -2.42657e-020 -4.95415e-022
LeftArm  -6.47664 -22.2678 -92.1271
LeftForeArm  26.7029 -39.6326 -8.39889
LeftHand  -0.0063633 -8.85361 -0.287977
RightShoulder  0 2.42657e-020 1.07489e-018
RightArm  -72.8562 42.8036 32.2463
RightForeArm  59.5939 17.2547 3.09114
RightHand  -4.18977 25.1818 -18.2355
LeftUpLeg  -59.539 4.37512 2.89886
LeftLeg  68.6747 0.0273928 0.0437983
LeftFoot  -11.6215 -0.0959844 -0.943177
LeftToes  -29.2701 8.63562e-007 1.17448e-007
320
root  28.189 27.2942 39.218 -155.309 8.22258 167.081
RightUpLeg  -57.1242 -7.40476 -26.1847
RightLeg  74.7976 0.232891 0.439726
RightFoot  -27.5416 0.298016 1.59353
RightToes  -46.8557 -0.275433 -0.350485
Spine  20.5055 3.36664 5.77843
Spine1  34.185 10.9594 3.85376
HEad  -0.524256 -12.9307 -2.46722
LeftShoulder1  0 -2.42657e-020 -4.95415e-022
LeftArm  -6.88307 -25.4574 -91.9256
LeftForeArm  25.6409 -39.8852 -8.47568
LeftHand  -0.0179597 -8.58529 -0.130794
RightShoulder  0 2.42657e-020 1.07489e-018
RightArm  -94.6199 44.8711 24.095
RightForeArm  60.1518 4.00175 0.668289
RightHand  -1.5896 21.8818 -7.84174
LeftUpLeg  -60.7643 4.08125 8.16626
LeftLeg  68.6504 1.05282 2.23836
LeftFoot  -13.5462 -0.248582 -2.09281
LeftToes  -26.5076 8.63562e-007 1.17448e-007
321
root  27.6601 26.3335 39.0728 -155.321 5.85286 165.571
RightUpLeg  -57.2979 -9.24951 -28.7939
RightLeg  79.4749 -0.0614221 -0.60131
RightFoot  -30.242 0.573941 2.5014
RightToes  -47.4126 -0.280238 -0.353054
Spine  20.6191 2.11728 5.6808
Spine1  34.0717 8.15197 4.46769
HEad  -1.7885 -12.9587 -3.18208
LeftShoulder1  0 -2.42657e-020 -4.95415e-022
LeftArm  -9.03458 -27.5373 -91.3923
LeftForeArm  23.8508 -40.4971 -8.66367
LeftHand  -0.0112126 -7.92435 -0.20825
RightShoulder  0 2.42657e-020 1.07489e-018
RightArm  -94.8118 43.1112 29.0621
RightForeArm  43.7366 6.4758 1.13485
RightHand  -1.23764 20.4855 -6.47329
LeftUpLeg  -61.7577 5.21655 11.28
LeftLeg  65.5716 1.11559 2.07432
LeftFoot  -13.482 -0.292966 -2.47822
LeftToes  -25.112 8.63562e-007 1.17448e-007
322
root  27.0844 25.6499 38.7876 -155.01 1.88784 164.401
RightUpLeg  -55.2039 -12.2234 -30.7227
RightLeg  82.1387 -0.232042 -1.60459
RightFoot  -32.1011 0.862053 3.37336
RightToes  -48.379 -0.288635 -0.357401
Spine  20.1143 0.37126 6.0128
Spine1  33.5938 4.61297 5.08456
HEad  -3.85133 -11.3279 -5.47566
LeftShoulder1  0 -2.42657e-020 -4.95415e-022
LeftArm  -12.2949 -27.0399 -92.2461
LeftForeArm  21.0314 -42.9206 -9.4439
LeftHand  -0.0433683 -6.85548 0.354443
RightShoulder  0 2.42657e-020 1.07489e-018
RightArm  -86.0496 41.4142 38.5026
RightForeArm  34.2039 15.5362 2.80159
RightHand  -0.857578 21.9942 -4.04209
LeftUpLeg  -63.3148 8.58548 12.4366
LeftLeg  59.9198 -0.110068 -0.175155
LeftFoot  -11.0978 -0.197647 -2.03425
LeftToes  -28.2684 8.63562e-007 1.17448e-007
323
root  26.4054 25.255 38.3083 -155.109 -2.07157 164.499
RightUpLeg  -51.7648 -15.2321 -31.119
RightLeg  83.1959 -0.50328 -3.24318
RightFoot  -31.8911 1.16853 4.46586
RightToes  -49.5931 -0.299286 -0.36266
Spine  19.6125 -1.16945 6.34126
Spine1  33.4299 1.7629 5.22072
HEad  -5.56681 -8.00008 -8.2623
LeftShoulder1  0 -2.42657e-020 -4.95415e-022
LeftArm  -14.4604 -24.6719 -92.5223
LeftForeArm  17.6075 -47.1185 -10.9584
LeftHand  -0.0341091 -6.10662 0.269797
RightShoulder  0 2.42657e-020 1.07489e-018
RightArm  -73.6631 38.1135 47.8759
RightForeArm  32.6512 25.0486 4.71829
RightHand  -2.49617 22.6028 -12.0766
LeftUpLeg  -64.3345 12.5664 13.0394
LeftLeg  52.4161 -2.62731 -2.99851
LeftFoot  -8.45351 -0.107024 -1.44806
LeftToes  -31.2096 8.63562e-007 1.17448e-007
324
root  25.6494 25.0818 37.7732 -155.177 -4.81247 165.703
RightUpLeg  -48.5965 -18.096 -30.8543
RightLeg  82.8647 -0.499069 -3.11655
RightFoot  -30.4154 1.06186 4.28247
RightToes  -50.724 -0.309304 -0.367354
Spine  18.8564 -2.17748 5.8928
Spine1  32.6848 -0.572784 5.18264
HEad  -5.59759 -4.41334 -9.84097
LeftShoulder1  0 -2.42657e-020 -4.95415e-022
LeftArm  -16.1174 -21.6783 -91.6883
LeftForeArm  19.0178 -50.735 -12.4798
LeftHand  0.00132555 -6.30029 -0.394471
RightShoulder  0 2.42657e-020 1.07489e-018
RightArm  -70.7047 33.9204 57.192
RightForeArm  21.2748 34.8309 7.04801
RightHand  -0.329899 22.7921 -1.26693
LeftUpLeg  -65.7602 18.324 11.4893
LeftLeg  44.4667 -5.11275 -4.40252
LeftFoot  -6.13317 -0.059771 -1.11566
LeftToes  -31.6102 8.63562e-007 1.17448e-007
325
root  24.7958 24.9046 37.1587 -154.594 -8.42996 168.284
RightUpLeg  -44.6229 -21.5147 -28.9865
RightLeg  80.4032 -0.675896 -3.25137
RightFoot  -29.6854 1.03168 4.26926
RightToes  -53.0586 -0.33027 -0.376416
Spine  18.1111 -2.51615 6.53728
Spine1  32.0986 -0.949883 5.341
HEad  -5.09154 -0.442355 -13.4531
LeftShoulder1  0 -2.42657e-020 -4.95415e-022
LeftArm  -16.6173 -19.209 -92.7339
LeftForeArm  19.0208 -53.1952 -13.6618
LeftHand  -0.0168502 -5.78125 -0.0362953
RightShoulder  0 2.42657e-020 1.07489e-018
RightArm  -63.334 31.7919 58.9937
RightForeArm  22.3216 37.3023 7.72344
RightHand  0.0905894 23.5165 0.805432
LeftUpLeg  -71.2822 24.5084 6.52985
LeftLeg  40.0273 -3.79127 -2.7907
LeftFoot  -4.93708 -0.0482204 -1.11849
LeftToes  -33.1347 8.63562e-007 1.17448e-007
326
root  23.7555 24.8967 36.2372 -154.68 -9.70444 170.36
RightUpLeg  -40.2629 -22.4165 -28.5911
RightLeg  76.6916 -1.0813 -3.8123
RightFoot  -27.9495 1.00435 4.41189
RightToes  -55.1697 -0.349533 -0.383869
Spine  17.7509 -2.10835 5.46716
Spine1  31.4482 -0.34855 4.3885
HEad  -4.32149 2.58711 -16.1443
LeftShoulder1  0 -2.42657e-020 -4.95415e-022
LeftArm  -17.3805 -17.5934 -92.973
LeftForeArm  14.3858 -53.9889 -14.0687
LeftHand  0.00950215 -4.52371 -0.611462
RightShoulder  0 2.42657e-020 1.07489e-018
RightArm  -54.2634 28.5014 64.3742
RightForeArm  20.0246 42.2583 9.22918
RightHand  0.798427 23.4526 4.21631
LeftUpLeg  -78.8662 32.5162 -6.28272
LeftLeg  38.9086 1.86323 1.31007
LeftFoot  -4.73463 -0.0465218 -1.12529
LeftToes  -27.1692 8.63562e-007 1.17448e-007
327
root  22.3033 25.0134 35.0431 -155.543 -11.3082 170.73
RightUpLeg  -32.8445 -23.5617 -31.5289
RightLeg  71.287 -0.940619 -2.46585
RightFoot  -24.6952 0.709929 3.61991
RightToes  -60.0785 -0.395288 -0.39842
Spine  17.7771 -1.90591 3.34423
Spine1  31.0908 -0.544533 3.11031
HEad  -2.90034 3.30505 -18.5221
LeftShoulder1  0 -2.42657e-020 -4.95415e-022
LeftArm  -18.6079 -16.8815 -93.3072
LeftForeArm  14.6755 -53.3529 -13.7378
LeftHand  0.00527101 -4.35556 -0.509376
RightShoulder  0 2.42657e-020 1.07489e-018
RightArm  -45.5677 24.6917 71.5694
RightForeArm  19.0194 48.343 11.4551
RightHand  0.703325 23.3441 3.77465
LeftUpLeg  -86.5909 37.2324 -23.5579
LeftLeg  40.661 5.25332 3.93847
LeftFoot  -4.76381 -0.0318994 -0.766882
LeftToes  -22.882 8.63562e-007 1.17448e-007
328
root  21.0144 25.2524 33.9767 -154.468 -16.1315 173.111
RightUpLeg  -25.886 -23.8348 -29.9515
RightLeg  64.4018 -1.98861 -3.65613
RightFoot  -19.9752 0.56489 3.58457
RightToes  -63.3807 -0.426693 -0.40598
Spine  16.4519 -1.94875 2.75524
Spine1  28.527 -1.75262 4.19113
HEad  -0.628062 4.11734 -19.8601
LeftShoulder1  0 -2.42657e-020 -4.95415e-022
LeftArm  -20.6694 -15.3785 -95.0342
LeftForeArm  16.2792 -52.679 -13.3997
LeftHand  -0.0329324 -4.91751 0.397544
RightShoulder  0 2.42657e-020 1.07489e-018
RightArm  -36.5664 19.8965 76.3343
RightForeArm  26.5146 55.1241 14.7054
RightHand  0.0202967 23.2723 0.468699
LeftUpLeg  -87.8457 33.5076 -24.8358
LeftLeg  40.7544 0.869892 0.651716
LeftFoot  -2.06671 7.43176e-005 0.00411112
LeftToes  -7.52988 8.63562e-007 1.17448e-007
